<mxfile host="app.diagrams.net" modified="2022-09-30T15:40:23.729Z" agent="5.0 (Windows NT 10.0; Win64; x64) AppleWebKit/537.36 (KHTML, like Gecko) Chrome/104.0.5112.102 Safari/537.36 OPR/90.0.4480.84" etag="Seg9dcWUowjEsOxGVtr4" version="20.4.0" type="github">
  <diagram id="R2lEEEUBdFMjLlhIrx00" name="Page-1">
    <mxGraphModel dx="760" dy="403" grid="1" gridSize="10" guides="1" tooltips="1" connect="1" arrows="1" fold="1" page="1" pageScale="1" pageWidth="850" pageHeight="1100" math="0" shadow="0" extFonts="Permanent Marker^https://fonts.googleapis.com/css?family=Permanent+Marker">
      <root>
        <mxCell id="0" />
        <mxCell id="1" parent="0" />
        <mxCell id="xJnIrRIf_URgN7wCy2Ms-1" value="NOTAÇÃO PETER CHEN" style="text;html=1;strokeColor=none;fillColor=none;align=left;verticalAlign=middle;whiteSpace=wrap;rounded=0;fontSize=24;" parent="1" vertex="1">
          <mxGeometry x="10" y="20" width="310" height="30" as="geometry" />
        </mxCell>
        <mxCell id="xJnIrRIf_URgN7wCy2Ms-2" value="" style="rounded=0;whiteSpace=wrap;html=1;fontSize=18;align=left;strokeWidth=2;" parent="1" vertex="1">
          <mxGeometry x="61.5" y="70" width="100" height="40" as="geometry" />
        </mxCell>
        <mxCell id="xJnIrRIf_URgN7wCy2Ms-3" value="&lt;font style=&quot;font-size: 14px;&quot;&gt;ENTIDADE&lt;/font&gt;" style="text;html=1;strokeColor=none;fillColor=none;align=left;verticalAlign=middle;whiteSpace=wrap;rounded=0;fontSize=14;fontStyle=1" parent="1" vertex="1">
          <mxGeometry x="171.5" y="80" width="100" height="20" as="geometry" />
        </mxCell>
        <mxCell id="xJnIrRIf_URgN7wCy2Ms-6" value="&lt;font style=&quot;font-size: 14px&quot;&gt;ENTIDADE FRACA&lt;/font&gt;" style="text;html=1;strokeColor=none;fillColor=none;align=left;verticalAlign=middle;whiteSpace=wrap;rounded=0;fontSize=14;fontStyle=1" parent="1" vertex="1">
          <mxGeometry x="171.5" y="140" width="140" height="20" as="geometry" />
        </mxCell>
        <mxCell id="xJnIrRIf_URgN7wCy2Ms-7" value="" style="shape=ext;margin=3;double=1;whiteSpace=wrap;html=1;align=center;rounded=0;shadow=0;glass=0;sketch=0;fontSize=14;strokeWidth=2;gradientColor=none;" parent="1" vertex="1">
          <mxGeometry x="61.5" y="130" width="100" height="40" as="geometry" />
        </mxCell>
        <mxCell id="xJnIrRIf_URgN7wCy2Ms-8" value="" style="shape=associativeEntity;whiteSpace=wrap;html=1;align=center;rounded=0;shadow=0;glass=0;sketch=0;fontSize=14;strokeWidth=2;gradientColor=none;" parent="1" vertex="1">
          <mxGeometry x="61.5" y="190" width="100" height="40" as="geometry" />
        </mxCell>
        <mxCell id="xJnIrRIf_URgN7wCy2Ms-9" value="&lt;font style=&quot;font-size: 14px&quot;&gt;ENTIDADE ASSOCIATIVA&lt;/font&gt;" style="text;html=1;strokeColor=none;fillColor=none;align=left;verticalAlign=middle;whiteSpace=wrap;rounded=0;fontSize=14;fontStyle=1" parent="1" vertex="1">
          <mxGeometry x="171.5" y="200" width="200" height="20" as="geometry" />
        </mxCell>
        <mxCell id="xJnIrRIf_URgN7wCy2Ms-10" value="" style="shape=rhombus;perimeter=rhombusPerimeter;whiteSpace=wrap;html=1;align=center;rounded=0;shadow=0;glass=0;sketch=0;fontSize=24;strokeWidth=2;gradientColor=none;" parent="1" vertex="1">
          <mxGeometry x="61.5" y="250" width="100" height="40" as="geometry" />
        </mxCell>
        <mxCell id="xJnIrRIf_URgN7wCy2Ms-11" value="RELACIONAMENTO" style="text;html=1;strokeColor=none;fillColor=none;align=left;verticalAlign=middle;whiteSpace=wrap;rounded=0;fontSize=14;fontStyle=1" parent="1" vertex="1">
          <mxGeometry x="171.5" y="260" width="200" height="20" as="geometry" />
        </mxCell>
        <mxCell id="xJnIrRIf_URgN7wCy2Ms-12" value="" style="shape=rhombus;double=1;perimeter=rhombusPerimeter;whiteSpace=wrap;html=1;align=center;rounded=0;shadow=0;glass=0;sketch=0;fontSize=24;strokeWidth=2;gradientColor=none;" parent="1" vertex="1">
          <mxGeometry x="61.5" y="310" width="100" height="40" as="geometry" />
        </mxCell>
        <mxCell id="xJnIrRIf_URgN7wCy2Ms-13" value="RELACIONAMENTO FRACO" style="text;html=1;strokeColor=none;fillColor=none;align=left;verticalAlign=middle;whiteSpace=wrap;rounded=0;fontSize=14;fontStyle=1" parent="1" vertex="1">
          <mxGeometry x="171.5" y="320" width="200" height="20" as="geometry" />
        </mxCell>
        <mxCell id="xJnIrRIf_URgN7wCy2Ms-14" value="" style="endArrow=none;html=1;rounded=0;fontSize=24;strokeWidth=2;" parent="1" edge="1">
          <mxGeometry relative="1" as="geometry">
            <mxPoint x="61.5" y="421" as="sourcePoint" />
            <mxPoint x="161.5" y="421" as="targetPoint" />
          </mxGeometry>
        </mxCell>
        <mxCell id="xJnIrRIf_URgN7wCy2Ms-15" value="1" style="resizable=0;html=1;align=right;verticalAlign=bottom;" parent="xJnIrRIf_URgN7wCy2Ms-14" connectable="0" vertex="1">
          <mxGeometry x="1" relative="1" as="geometry" />
        </mxCell>
        <mxCell id="xJnIrRIf_URgN7wCy2Ms-16" value="" style="endArrow=none;html=1;rounded=0;fontSize=24;strokeWidth=2;" parent="1" edge="1">
          <mxGeometry relative="1" as="geometry">
            <mxPoint x="61.5" y="441" as="sourcePoint" />
            <mxPoint x="161.5" y="441" as="targetPoint" />
          </mxGeometry>
        </mxCell>
        <mxCell id="xJnIrRIf_URgN7wCy2Ms-17" value="N" style="resizable=0;html=1;align=right;verticalAlign=bottom;" parent="xJnIrRIf_URgN7wCy2Ms-16" connectable="0" vertex="1">
          <mxGeometry x="1" relative="1" as="geometry" />
        </mxCell>
        <mxCell id="xJnIrRIf_URgN7wCy2Ms-18" value="CARDINALIDADE" style="text;html=1;strokeColor=none;fillColor=none;align=left;verticalAlign=middle;whiteSpace=wrap;rounded=0;fontSize=14;fontStyle=1" parent="1" vertex="1">
          <mxGeometry x="171.5" y="418" width="200" height="20" as="geometry" />
        </mxCell>
        <mxCell id="xJnIrRIf_URgN7wCy2Ms-19" value="" style="shape=link;html=1;rounded=0;fontSize=24;strokeWidth=2;" parent="1" edge="1">
          <mxGeometry relative="1" as="geometry">
            <mxPoint x="61.5" y="471" as="sourcePoint" />
            <mxPoint x="161.5" y="471" as="targetPoint" />
          </mxGeometry>
        </mxCell>
        <mxCell id="xJnIrRIf_URgN7wCy2Ms-21" value="PARTICIPAÇÃO TOTAL" style="text;html=1;strokeColor=none;fillColor=none;align=left;verticalAlign=middle;whiteSpace=wrap;rounded=0;fontSize=14;fontStyle=1" parent="1" vertex="1">
          <mxGeometry x="171.5" y="460" width="200" height="20" as="geometry" />
        </mxCell>
        <mxCell id="xJnIrRIf_URgN7wCy2Ms-22" value="" style="ellipse;whiteSpace=wrap;html=1;align=center;rounded=0;shadow=0;glass=0;sketch=0;fontSize=24;strokeWidth=2;gradientColor=none;" parent="1" vertex="1">
          <mxGeometry x="440" y="70" width="100" height="40" as="geometry" />
        </mxCell>
        <mxCell id="xJnIrRIf_URgN7wCy2Ms-23" value="&amp;nbsp; &amp;nbsp; &amp;nbsp; &amp;nbsp; &amp;nbsp;&amp;nbsp;" style="ellipse;whiteSpace=wrap;html=1;align=center;fontStyle=4;rounded=0;shadow=0;glass=0;sketch=0;fontSize=24;strokeWidth=2;gradientColor=none;" parent="1" vertex="1">
          <mxGeometry x="440" y="130" width="100" height="40" as="geometry" />
        </mxCell>
        <mxCell id="xJnIrRIf_URgN7wCy2Ms-24" value="" style="ellipse;whiteSpace=wrap;html=1;align=center;dashed=1;rounded=0;shadow=0;glass=0;sketch=0;fontSize=24;strokeWidth=2;gradientColor=none;" parent="1" vertex="1">
          <mxGeometry x="440" y="190" width="100" height="40" as="geometry" />
        </mxCell>
        <mxCell id="xJnIrRIf_URgN7wCy2Ms-25" value="" style="ellipse;shape=doubleEllipse;margin=3;whiteSpace=wrap;html=1;align=center;rounded=0;shadow=0;glass=0;sketch=0;fontSize=24;strokeWidth=2;gradientColor=none;" parent="1" vertex="1">
          <mxGeometry x="440" y="250" width="100" height="40" as="geometry" />
        </mxCell>
        <mxCell id="xJnIrRIf_URgN7wCy2Ms-30" style="edgeStyle=orthogonalEdgeStyle;rounded=0;orthogonalLoop=1;jettySize=auto;html=1;entryX=0.5;entryY=0;entryDx=0;entryDy=0;fontSize=24;strokeWidth=2;endArrow=none;endFill=0;" parent="1" source="xJnIrRIf_URgN7wCy2Ms-26" target="xJnIrRIf_URgN7wCy2Ms-27" edge="1">
          <mxGeometry relative="1" as="geometry" />
        </mxCell>
        <mxCell id="xJnIrRIf_URgN7wCy2Ms-31" style="rounded=0;orthogonalLoop=1;jettySize=auto;html=1;entryX=0;entryY=0;entryDx=0;entryDy=0;fontSize=24;endArrow=none;endFill=0;strokeWidth=2;" parent="1" source="xJnIrRIf_URgN7wCy2Ms-26" target="xJnIrRIf_URgN7wCy2Ms-28" edge="1">
          <mxGeometry relative="1" as="geometry" />
        </mxCell>
        <mxCell id="xJnIrRIf_URgN7wCy2Ms-32" style="edgeStyle=none;rounded=0;orthogonalLoop=1;jettySize=auto;html=1;entryX=0;entryY=0;entryDx=0;entryDy=0;fontSize=24;endArrow=none;endFill=0;strokeWidth=2;" parent="1" source="xJnIrRIf_URgN7wCy2Ms-26" target="xJnIrRIf_URgN7wCy2Ms-29" edge="1">
          <mxGeometry relative="1" as="geometry" />
        </mxCell>
        <mxCell id="xJnIrRIf_URgN7wCy2Ms-26" value="" style="ellipse;whiteSpace=wrap;html=1;align=center;rounded=0;shadow=0;glass=0;sketch=0;fontSize=24;strokeWidth=2;gradientColor=none;" parent="1" vertex="1">
          <mxGeometry x="440" y="310" width="100" height="40" as="geometry" />
        </mxCell>
        <mxCell id="xJnIrRIf_URgN7wCy2Ms-27" value="" style="ellipse;whiteSpace=wrap;html=1;align=center;rounded=0;shadow=0;glass=0;sketch=0;fontSize=24;strokeWidth=2;gradientColor=none;" parent="1" vertex="1">
          <mxGeometry x="440" y="380" width="100" height="40" as="geometry" />
        </mxCell>
        <mxCell id="xJnIrRIf_URgN7wCy2Ms-28" value="" style="ellipse;whiteSpace=wrap;html=1;align=center;rounded=0;shadow=0;glass=0;sketch=0;fontSize=24;strokeWidth=2;gradientColor=none;" parent="1" vertex="1">
          <mxGeometry x="560" y="380" width="100" height="40" as="geometry" />
        </mxCell>
        <mxCell id="xJnIrRIf_URgN7wCy2Ms-29" value="" style="ellipse;whiteSpace=wrap;html=1;align=center;rounded=0;shadow=0;glass=0;sketch=0;fontSize=24;strokeWidth=2;gradientColor=none;" parent="1" vertex="1">
          <mxGeometry x="710" y="380" width="100" height="40" as="geometry" />
        </mxCell>
        <mxCell id="xJnIrRIf_URgN7wCy2Ms-33" value="&lt;font style=&quot;font-size: 14px&quot;&gt;ATRIBUTO&lt;/font&gt;" style="text;html=1;strokeColor=none;fillColor=none;align=left;verticalAlign=middle;whiteSpace=wrap;rounded=0;fontSize=14;fontStyle=1" parent="1" vertex="1">
          <mxGeometry x="560" y="80" width="100" height="20" as="geometry" />
        </mxCell>
        <mxCell id="xJnIrRIf_URgN7wCy2Ms-34" value="&lt;font style=&quot;font-size: 14px&quot;&gt;ATRIBUTO CHAVE&lt;/font&gt;" style="text;html=1;strokeColor=none;fillColor=none;align=left;verticalAlign=middle;whiteSpace=wrap;rounded=0;fontSize=14;fontStyle=1" parent="1" vertex="1">
          <mxGeometry x="560" y="140" width="160" height="20" as="geometry" />
        </mxCell>
        <mxCell id="xJnIrRIf_URgN7wCy2Ms-35" value="&lt;font style=&quot;font-size: 14px&quot;&gt;ATRIBUTO DERIVADO&lt;/font&gt;" style="text;html=1;strokeColor=none;fillColor=none;align=left;verticalAlign=middle;whiteSpace=wrap;rounded=0;fontSize=14;fontStyle=1" parent="1" vertex="1">
          <mxGeometry x="560" y="200" width="160" height="20" as="geometry" />
        </mxCell>
        <mxCell id="xJnIrRIf_URgN7wCy2Ms-36" value="&lt;font style=&quot;font-size: 14px&quot;&gt;ATRIBUTO MULTIVALORADO&lt;/font&gt;" style="text;html=1;strokeColor=none;fillColor=none;align=left;verticalAlign=middle;whiteSpace=wrap;rounded=0;fontSize=14;fontStyle=1" parent="1" vertex="1">
          <mxGeometry x="560" y="260" width="200" height="20" as="geometry" />
        </mxCell>
        <mxCell id="xJnIrRIf_URgN7wCy2Ms-37" value="&lt;font style=&quot;font-size: 14px&quot;&gt;ATRIBUTO COMPOSTO&lt;/font&gt;" style="text;html=1;strokeColor=none;fillColor=none;align=left;verticalAlign=middle;whiteSpace=wrap;rounded=0;fontSize=14;fontStyle=1" parent="1" vertex="1">
          <mxGeometry x="560" y="310" width="200" height="20" as="geometry" />
        </mxCell>
        <mxCell id="xJnIrRIf_URgN7wCy2Ms-38" value="&lt;font style=&quot;font-size: 14px&quot;&gt;...&lt;/font&gt;" style="text;html=1;strokeColor=none;fillColor=none;align=left;verticalAlign=middle;whiteSpace=wrap;rounded=0;fontSize=14;fontStyle=1" parent="1" vertex="1">
          <mxGeometry x="670" y="390" width="20" height="20" as="geometry" />
        </mxCell>
        <mxCell id="xJnIrRIf_URgN7wCy2Ms-67" value="EMPRESA DE CHOCOLATES" style="text;html=1;strokeColor=none;fillColor=none;align=left;verticalAlign=middle;whiteSpace=wrap;rounded=0;fontSize=24;" parent="1" vertex="1">
          <mxGeometry x="76.25" y="570" width="640" height="30" as="geometry" />
        </mxCell>
        <mxCell id="xJnIrRIf_URgN7wCy2Ms-68" value="" style="triangle;whiteSpace=wrap;html=1;rounded=0;shadow=0;glass=0;sketch=0;fontSize=12;strokeWidth=2;gradientColor=none;align=right;rotation=270;" parent="1" vertex="1">
          <mxGeometry x="96.5" y="360" width="30" height="40" as="geometry" />
        </mxCell>
        <mxCell id="xJnIrRIf_URgN7wCy2Ms-69" value="ESPECIALIZAÇÃO" style="text;html=1;strokeColor=none;fillColor=none;align=left;verticalAlign=middle;whiteSpace=wrap;rounded=0;fontSize=14;fontStyle=1" parent="1" vertex="1">
          <mxGeometry x="171.5" y="370" width="200" height="20" as="geometry" />
        </mxCell>
        <mxCell id="U17XQBYvCdzyfJvJ4bm0-53" value="FAZ" style="rhombus;whiteSpace=wrap;html=1;" parent="1" vertex="1">
          <mxGeometry x="460" y="755" width="80" height="60" as="geometry" />
        </mxCell>
        <mxCell id="U17XQBYvCdzyfJvJ4bm0-54" value="" style="endArrow=none;html=1;rounded=0;" parent="1" source="U17XQBYvCdzyfJvJ4bm0-3" target="U17XQBYvCdzyfJvJ4bm0-53" edge="1">
          <mxGeometry width="50" height="50" relative="1" as="geometry">
            <mxPoint x="420" y="680" as="sourcePoint" />
            <mxPoint x="443.90792300919816" y="715.8618845137971" as="targetPoint" />
            <Array as="points" />
          </mxGeometry>
        </mxCell>
        <mxCell id="U17XQBYvCdzyfJvJ4bm0-55" value="" style="endArrow=none;html=1;rounded=0;" parent="1" source="U17XQBYvCdzyfJvJ4bm0-4" target="U17XQBYvCdzyfJvJ4bm0-53" edge="1">
          <mxGeometry width="50" height="50" relative="1" as="geometry">
            <mxPoint x="430" y="690" as="sourcePoint" />
            <mxPoint x="453.90792300919816" y="725.8618845137971" as="targetPoint" />
            <Array as="points" />
          </mxGeometry>
        </mxCell>
        <mxCell id="U17XQBYvCdzyfJvJ4bm0-4" value="CLIENTE" style="whiteSpace=wrap;html=1;" parent="1" vertex="1">
          <mxGeometry x="440" y="635" width="120" height="60" as="geometry" />
        </mxCell>
        <mxCell id="U17XQBYvCdzyfJvJ4bm0-21" value="" style="endArrow=none;html=1;rounded=0;" parent="1" source="U17XQBYvCdzyfJvJ4bm0-4" target="U17XQBYvCdzyfJvJ4bm0-8" edge="1">
          <mxGeometry width="50" height="50" relative="1" as="geometry">
            <mxPoint x="530" y="720" as="sourcePoint" />
            <mxPoint x="580" y="700" as="targetPoint" />
            <Array as="points" />
          </mxGeometry>
        </mxCell>
        <mxCell id="U17XQBYvCdzyfJvJ4bm0-32" value="" style="group" parent="1" vertex="1" connectable="0">
          <mxGeometry x="597.5" y="620" width="85" height="30" as="geometry" />
        </mxCell>
        <mxCell id="U17XQBYvCdzyfJvJ4bm0-8" value="" style="ellipse;whiteSpace=wrap;html=1;" parent="U17XQBYvCdzyfJvJ4bm0-32" vertex="1">
          <mxGeometry y="5" width="30" height="20" as="geometry" />
        </mxCell>
        <mxCell id="U17XQBYvCdzyfJvJ4bm0-14" value="NOME" style="text;html=1;align=center;verticalAlign=middle;resizable=0;points=[];autosize=1;strokeColor=none;fillColor=none;" parent="U17XQBYvCdzyfJvJ4bm0-32" vertex="1">
          <mxGeometry x="25" width="60" height="30" as="geometry" />
        </mxCell>
        <mxCell id="U17XQBYvCdzyfJvJ4bm0-47" value="" style="group" parent="1" vertex="1" connectable="0">
          <mxGeometry x="597.5" y="680" width="135" height="30" as="geometry" />
        </mxCell>
        <mxCell id="U17XQBYvCdzyfJvJ4bm0-44" value="&lt;div style=&quot;&quot;&gt;&lt;span style=&quot;background-color: initial;&quot;&gt;INSTAGRAM&lt;/span&gt;&lt;/div&gt;" style="text;html=1;align=left;verticalAlign=middle;resizable=0;points=[];autosize=1;strokeColor=none;fillColor=none;" parent="U17XQBYvCdzyfJvJ4bm0-47" vertex="1">
          <mxGeometry x="35" width="90" height="30" as="geometry" />
        </mxCell>
        <mxCell id="Rct7tU_BRI2sj2KsmHXS-6" value="" style="ellipse;shape=doubleEllipse;margin=3;whiteSpace=wrap;html=1;align=center;" vertex="1" parent="U17XQBYvCdzyfJvJ4bm0-47">
          <mxGeometry y="5" width="30" height="20" as="geometry" />
        </mxCell>
        <mxCell id="U17XQBYvCdzyfJvJ4bm0-48" value="" style="endArrow=none;html=1;rounded=0;" parent="1" source="Rct7tU_BRI2sj2KsmHXS-6" target="U17XQBYvCdzyfJvJ4bm0-4" edge="1">
          <mxGeometry width="50" height="50" relative="1" as="geometry">
            <mxPoint x="595.1158318492949" y="656.2403473458921" as="sourcePoint" />
            <mxPoint x="607.1376061143117" y="684.8550424457246" as="targetPoint" />
          </mxGeometry>
        </mxCell>
        <mxCell id="U17XQBYvCdzyfJvJ4bm0-49" value="" style="endArrow=none;html=1;rounded=0;" parent="1" source="Rct7tU_BRI2sj2KsmHXS-3" target="U17XQBYvCdzyfJvJ4bm0-4" edge="1">
          <mxGeometry width="50" height="50" relative="1" as="geometry">
            <mxPoint x="589.5818880595712" y="630.0825358454147" as="sourcePoint" />
            <mxPoint x="617.1376061143117" y="694.8550424457246" as="targetPoint" />
          </mxGeometry>
        </mxCell>
        <mxCell id="U17XQBYvCdzyfJvJ4bm0-56" value="1" style="text;html=1;align=center;verticalAlign=middle;resizable=0;points=[];autosize=1;strokeColor=none;fillColor=none;" parent="1" vertex="1">
          <mxGeometry x="470" y="695" width="30" height="30" as="geometry" />
        </mxCell>
        <mxCell id="O327ivwKYVcOwmpXmDWC-35" value="VENDE" style="shape=rhombus;perimeter=rhombusPerimeter;whiteSpace=wrap;html=1;align=center;" parent="1" vertex="1">
          <mxGeometry x="295" y="880" width="80" height="60" as="geometry" />
        </mxCell>
        <mxCell id="O327ivwKYVcOwmpXmDWC-36" value="CHOCOLATE" style="whiteSpace=wrap;html=1;align=center;" parent="1" vertex="1">
          <mxGeometry x="114" y="880" width="120" height="60" as="geometry" />
        </mxCell>
        <mxCell id="O327ivwKYVcOwmpXmDWC-44" value="" style="endArrow=none;html=1;rounded=0;" parent="1" source="O327ivwKYVcOwmpXmDWC-36" target="O327ivwKYVcOwmpXmDWC-35" edge="1">
          <mxGeometry width="50" height="50" relative="1" as="geometry">
            <mxPoint x="520" y="840" as="sourcePoint" />
            <mxPoint x="570" y="790" as="targetPoint" />
          </mxGeometry>
        </mxCell>
        <mxCell id="O327ivwKYVcOwmpXmDWC-63" value="" style="endArrow=none;html=1;rounded=0;" parent="1" source="O327ivwKYVcOwmpXmDWC-36" target="Rct7tU_BRI2sj2KsmHXS-23" edge="1">
          <mxGeometry width="50" height="50" relative="1" as="geometry">
            <mxPoint x="246.5" y="1065.2172713758823" as="sourcePoint" />
            <mxPoint x="238.89594617394323" y="957.6090717383474" as="targetPoint" />
          </mxGeometry>
        </mxCell>
        <mxCell id="O327ivwKYVcOwmpXmDWC-64" value="" style="endArrow=none;html=1;rounded=0;" parent="1" source="O327ivwKYVcOwmpXmDWC-36" target="Rct7tU_BRI2sj2KsmHXS-26" edge="1">
          <mxGeometry width="50" height="50" relative="1" as="geometry">
            <mxPoint x="237.50531407039136" y="1070" as="sourcePoint" />
            <mxPoint x="218.54686271522235" y="985.6842238051715" as="targetPoint" />
          </mxGeometry>
        </mxCell>
        <mxCell id="O327ivwKYVcOwmpXmDWC-65" value="" style="endArrow=none;html=1;rounded=0;" parent="1" source="O327ivwKYVcOwmpXmDWC-36" target="Rct7tU_BRI2sj2KsmHXS-32" edge="1">
          <mxGeometry width="50" height="50" relative="1" as="geometry">
            <mxPoint x="220.60843145694844" y="1070" as="sourcePoint" />
            <mxPoint x="190.00150971770904" y="1015.0500245255876" as="targetPoint" />
          </mxGeometry>
        </mxCell>
        <mxCell id="O327ivwKYVcOwmpXmDWC-66" value="" style="endArrow=none;html=1;rounded=0;" parent="1" source="O327ivwKYVcOwmpXmDWC-36" target="Rct7tU_BRI2sj2KsmHXS-29" edge="1">
          <mxGeometry width="50" height="50" relative="1" as="geometry">
            <mxPoint x="208.9537385829077" y="1070" as="sourcePoint" />
            <mxPoint x="143.7135907991859" y="1045.109487918531" as="targetPoint" />
          </mxGeometry>
        </mxCell>
        <mxCell id="U17XQBYvCdzyfJvJ4bm0-3" value="PEDIDO" style="whiteSpace=wrap;html=1;" parent="1" vertex="1">
          <mxGeometry x="440" y="880" width="120" height="60" as="geometry" />
        </mxCell>
        <mxCell id="U17XQBYvCdzyfJvJ4bm0-57" value="N" style="text;html=1;align=center;verticalAlign=middle;resizable=0;points=[];autosize=1;strokeColor=none;fillColor=none;" parent="1" vertex="1">
          <mxGeometry x="470" y="850" width="30" height="30" as="geometry" />
        </mxCell>
        <mxCell id="O327ivwKYVcOwmpXmDWC-4" value="" style="group" parent="1" vertex="1" connectable="0">
          <mxGeometry x="597.5" y="850" width="135" height="30" as="geometry" />
        </mxCell>
        <mxCell id="O327ivwKYVcOwmpXmDWC-2" value="" style="ellipse;whiteSpace=wrap;html=1;" parent="O327ivwKYVcOwmpXmDWC-4" vertex="1">
          <mxGeometry y="5" width="30" height="20" as="geometry" />
        </mxCell>
        <mxCell id="O327ivwKYVcOwmpXmDWC-3" value="NOME CLIENTE" style="text;html=1;align=center;verticalAlign=middle;resizable=0;points=[];autosize=1;strokeColor=none;fillColor=none;" parent="O327ivwKYVcOwmpXmDWC-4" vertex="1">
          <mxGeometry x="25" width="110" height="30" as="geometry" />
        </mxCell>
        <mxCell id="O327ivwKYVcOwmpXmDWC-5" value="" style="endArrow=none;html=1;rounded=0;" parent="1" source="U17XQBYvCdzyfJvJ4bm0-3" target="O327ivwKYVcOwmpXmDWC-2" edge="1">
          <mxGeometry width="50" height="50" relative="1" as="geometry">
            <mxPoint x="630" y="910" as="sourcePoint" />
            <mxPoint x="680" y="860" as="targetPoint" />
          </mxGeometry>
        </mxCell>
        <mxCell id="O327ivwKYVcOwmpXmDWC-11" value="" style="group" parent="1" vertex="1" connectable="0">
          <mxGeometry x="617.5" y="880" width="85" height="30" as="geometry" />
        </mxCell>
        <mxCell id="O327ivwKYVcOwmpXmDWC-7" value="" style="ellipse;whiteSpace=wrap;html=1;" parent="O327ivwKYVcOwmpXmDWC-11" vertex="1">
          <mxGeometry y="5" width="30" height="20" as="geometry" />
        </mxCell>
        <mxCell id="O327ivwKYVcOwmpXmDWC-8" value="DATA" style="text;html=1;align=left;verticalAlign=middle;resizable=0;points=[];autosize=1;strokeColor=none;fillColor=none;" parent="O327ivwKYVcOwmpXmDWC-11" vertex="1">
          <mxGeometry x="35" width="50" height="30" as="geometry" />
        </mxCell>
        <mxCell id="O327ivwKYVcOwmpXmDWC-30" value="" style="endArrow=none;html=1;rounded=0;" parent="1" source="O327ivwKYVcOwmpXmDWC-89" target="U17XQBYvCdzyfJvJ4bm0-3" edge="1">
          <mxGeometry width="50" height="50" relative="1" as="geometry">
            <mxPoint x="561.2354291123199" y="966.8846565854813" as="sourcePoint" />
            <mxPoint x="690" y="850" as="targetPoint" />
          </mxGeometry>
        </mxCell>
        <mxCell id="O327ivwKYVcOwmpXmDWC-31" value="" style="endArrow=none;html=1;rounded=0;" parent="1" source="U17XQBYvCdzyfJvJ4bm0-3" target="O327ivwKYVcOwmpXmDWC-7" edge="1">
          <mxGeometry width="50" height="50" relative="1" as="geometry">
            <mxPoint x="650" y="910" as="sourcePoint" />
            <mxPoint x="700" y="860" as="targetPoint" />
          </mxGeometry>
        </mxCell>
        <mxCell id="O327ivwKYVcOwmpXmDWC-33" value="" style="endArrow=none;html=1;rounded=0;" parent="1" source="Rct7tU_BRI2sj2KsmHXS-16" target="O327ivwKYVcOwmpXmDWC-89" edge="1">
          <mxGeometry width="50" height="50" relative="1" as="geometry">
            <mxPoint x="621.0364727938522" y="1015.3554171317071" as="sourcePoint" />
            <mxPoint x="567.7934979575637" y="984.8912160523007" as="targetPoint" />
          </mxGeometry>
        </mxCell>
        <mxCell id="O327ivwKYVcOwmpXmDWC-34" value="" style="endArrow=none;html=1;rounded=0;" parent="1" source="O327ivwKYVcOwmpXmDWC-89" target="O327ivwKYVcOwmpXmDWC-26" edge="1">
          <mxGeometry width="50" height="50" relative="1" as="geometry">
            <mxPoint x="571.6564728910887" y="984.9388373465329" as="sourcePoint" />
            <mxPoint x="730" y="890" as="targetPoint" />
          </mxGeometry>
        </mxCell>
        <mxCell id="O327ivwKYVcOwmpXmDWC-43" value="" style="endArrow=none;html=1;rounded=0;" parent="1" source="O327ivwKYVcOwmpXmDWC-35" target="U17XQBYvCdzyfJvJ4bm0-3" edge="1">
          <mxGeometry width="50" height="50" relative="1" as="geometry">
            <mxPoint x="500" y="1000" as="sourcePoint" />
            <mxPoint x="740" y="900" as="targetPoint" />
          </mxGeometry>
        </mxCell>
        <mxCell id="O327ivwKYVcOwmpXmDWC-93" value="" style="group" parent="1" vertex="1" connectable="0">
          <mxGeometry x="610" y="910" width="140" height="30" as="geometry" />
        </mxCell>
        <mxCell id="O327ivwKYVcOwmpXmDWC-14" value="CHOCOLATE" style="text;html=1;align=left;verticalAlign=middle;resizable=0;points=[];autosize=1;strokeColor=none;fillColor=none;" parent="O327ivwKYVcOwmpXmDWC-93" vertex="1">
          <mxGeometry x="30" width="100" height="30" as="geometry" />
        </mxCell>
        <mxCell id="O327ivwKYVcOwmpXmDWC-89" value="" style="ellipse;shape=doubleEllipse;margin=3;whiteSpace=wrap;html=1;align=center;" parent="O327ivwKYVcOwmpXmDWC-93" vertex="1">
          <mxGeometry y="5" width="30" height="20" as="geometry" />
        </mxCell>
        <mxCell id="O327ivwKYVcOwmpXmDWC-96" value="N" style="text;html=1;align=center;verticalAlign=middle;resizable=0;points=[];autosize=1;strokeColor=none;fillColor=none;" parent="1" vertex="1">
          <mxGeometry x="410" y="880" width="30" height="30" as="geometry" />
        </mxCell>
        <mxCell id="O327ivwKYVcOwmpXmDWC-97" value="N" style="text;html=1;align=center;verticalAlign=middle;resizable=0;points=[];autosize=1;strokeColor=none;fillColor=none;" parent="1" vertex="1">
          <mxGeometry x="234" y="880" width="30" height="30" as="geometry" />
        </mxCell>
        <mxCell id="Rct7tU_BRI2sj2KsmHXS-2" value="" style="group" vertex="1" connectable="0" parent="1">
          <mxGeometry x="603.75" y="650" width="112.5" height="30" as="geometry" />
        </mxCell>
        <mxCell id="U17XQBYvCdzyfJvJ4bm0-43" value="TELEFONE" style="text;html=1;align=center;verticalAlign=middle;resizable=0;points=[];autosize=1;strokeColor=none;fillColor=none;" parent="Rct7tU_BRI2sj2KsmHXS-2" vertex="1">
          <mxGeometry x="22.5" width="90" height="30" as="geometry" />
        </mxCell>
        <mxCell id="Rct7tU_BRI2sj2KsmHXS-3" value="" style="ellipse;shape=doubleEllipse;margin=3;whiteSpace=wrap;html=1;align=center;" vertex="1" parent="Rct7tU_BRI2sj2KsmHXS-2">
          <mxGeometry y="5" width="30" height="20" as="geometry" />
        </mxCell>
        <mxCell id="O327ivwKYVcOwmpXmDWC-87" value="" style="group" parent="1" vertex="1" connectable="0">
          <mxGeometry x="655" y="940" width="105" height="30" as="geometry" />
        </mxCell>
        <mxCell id="O327ivwKYVcOwmpXmDWC-26" value="" style="ellipse;whiteSpace=wrap;html=1;" parent="O327ivwKYVcOwmpXmDWC-87" vertex="1">
          <mxGeometry y="5" width="30" height="20" as="geometry" />
        </mxCell>
        <mxCell id="O327ivwKYVcOwmpXmDWC-27" value="MARCA" style="text;html=1;align=left;verticalAlign=middle;resizable=0;points=[];autosize=1;strokeColor=none;fillColor=none;" parent="O327ivwKYVcOwmpXmDWC-87" vertex="1">
          <mxGeometry x="35" width="70" height="30" as="geometry" />
        </mxCell>
        <mxCell id="Rct7tU_BRI2sj2KsmHXS-8" value="" style="group" vertex="1" connectable="0" parent="1">
          <mxGeometry x="570" y="820" width="135" height="30" as="geometry" />
        </mxCell>
        <mxCell id="Rct7tU_BRI2sj2KsmHXS-9" value="" style="ellipse;whiteSpace=wrap;html=1;" vertex="1" parent="Rct7tU_BRI2sj2KsmHXS-8">
          <mxGeometry y="5" width="30" height="20" as="geometry" />
        </mxCell>
        <mxCell id="Rct7tU_BRI2sj2KsmHXS-10" value="&lt;u&gt;Nº DA VENDA&lt;/u&gt;" style="text;html=1;align=left;verticalAlign=middle;resizable=0;points=[];autosize=1;strokeColor=none;fillColor=none;" vertex="1" parent="Rct7tU_BRI2sj2KsmHXS-8">
          <mxGeometry x="35" width="100" height="30" as="geometry" />
        </mxCell>
        <mxCell id="Rct7tU_BRI2sj2KsmHXS-11" value="" style="endArrow=none;html=1;rounded=0;" edge="1" parent="1" source="U17XQBYvCdzyfJvJ4bm0-3" target="Rct7tU_BRI2sj2KsmHXS-9">
          <mxGeometry width="50" height="50" relative="1" as="geometry">
            <mxPoint x="557.47" y="861.5161988072113" as="sourcePoint" />
            <mxPoint x="590.0042992699794" y="859.9958703555495" as="targetPoint" />
          </mxGeometry>
        </mxCell>
        <mxCell id="Rct7tU_BRI2sj2KsmHXS-15" value="" style="group" vertex="1" connectable="0" parent="1">
          <mxGeometry x="630" y="970" width="105" height="30" as="geometry" />
        </mxCell>
        <mxCell id="Rct7tU_BRI2sj2KsmHXS-16" value="" style="ellipse;whiteSpace=wrap;html=1;" vertex="1" parent="Rct7tU_BRI2sj2KsmHXS-15">
          <mxGeometry y="5" width="30" height="20" as="geometry" />
        </mxCell>
        <mxCell id="Rct7tU_BRI2sj2KsmHXS-17" value="PREÇO" style="text;html=1;align=left;verticalAlign=middle;resizable=0;points=[];autosize=1;strokeColor=none;fillColor=none;" vertex="1" parent="Rct7tU_BRI2sj2KsmHXS-15">
          <mxGeometry x="35" width="70" height="30" as="geometry" />
        </mxCell>
        <mxCell id="Rct7tU_BRI2sj2KsmHXS-18" value="" style="group" vertex="1" connectable="0" parent="1">
          <mxGeometry x="592.5" y="1000" width="135" height="30" as="geometry" />
        </mxCell>
        <mxCell id="Rct7tU_BRI2sj2KsmHXS-19" value="" style="ellipse;whiteSpace=wrap;html=1;" vertex="1" parent="Rct7tU_BRI2sj2KsmHXS-18">
          <mxGeometry y="5" width="30" height="20" as="geometry" />
        </mxCell>
        <mxCell id="Rct7tU_BRI2sj2KsmHXS-20" value="QUANTIDADE" style="text;html=1;align=left;verticalAlign=middle;resizable=0;points=[];autosize=1;strokeColor=none;fillColor=none;" vertex="1" parent="Rct7tU_BRI2sj2KsmHXS-18">
          <mxGeometry x="35" width="100" height="30" as="geometry" />
        </mxCell>
        <mxCell id="Rct7tU_BRI2sj2KsmHXS-21" value="" style="endArrow=none;html=1;rounded=0;" edge="1" parent="1" source="Rct7tU_BRI2sj2KsmHXS-19" target="O327ivwKYVcOwmpXmDWC-89">
          <mxGeometry width="50" height="50" relative="1" as="geometry">
            <mxPoint x="648.340274150539" y="1026.0396415843618" as="sourcePoint" />
            <mxPoint x="616.6876187539851" y="983.9511204861033" as="targetPoint" />
          </mxGeometry>
        </mxCell>
        <mxCell id="Rct7tU_BRI2sj2KsmHXS-22" value="" style="group" vertex="1" connectable="0" parent="1">
          <mxGeometry x="230" y="840" width="105" height="30" as="geometry" />
        </mxCell>
        <mxCell id="Rct7tU_BRI2sj2KsmHXS-23" value="" style="ellipse;whiteSpace=wrap;html=1;" vertex="1" parent="Rct7tU_BRI2sj2KsmHXS-22">
          <mxGeometry y="5" width="30" height="20" as="geometry" />
        </mxCell>
        <mxCell id="Rct7tU_BRI2sj2KsmHXS-24" value="&lt;u&gt;Nº LOTE&lt;/u&gt;" style="text;html=1;align=left;verticalAlign=middle;resizable=0;points=[];autosize=1;strokeColor=none;fillColor=none;" vertex="1" parent="Rct7tU_BRI2sj2KsmHXS-22">
          <mxGeometry x="35" width="70" height="30" as="geometry" />
        </mxCell>
        <mxCell id="Rct7tU_BRI2sj2KsmHXS-25" value="" style="group" vertex="1" connectable="0" parent="1">
          <mxGeometry x="215" y="810" width="105" height="30" as="geometry" />
        </mxCell>
        <mxCell id="Rct7tU_BRI2sj2KsmHXS-26" value="" style="ellipse;whiteSpace=wrap;html=1;" vertex="1" parent="Rct7tU_BRI2sj2KsmHXS-25">
          <mxGeometry y="5" width="30" height="20" as="geometry" />
        </mxCell>
        <mxCell id="Rct7tU_BRI2sj2KsmHXS-27" value="MARCA" style="text;html=1;align=left;verticalAlign=middle;resizable=0;points=[];autosize=1;strokeColor=none;fillColor=none;" vertex="1" parent="Rct7tU_BRI2sj2KsmHXS-25">
          <mxGeometry x="35" width="70" height="30" as="geometry" />
        </mxCell>
        <mxCell id="Rct7tU_BRI2sj2KsmHXS-28" value="" style="group" vertex="1" connectable="0" parent="1">
          <mxGeometry x="190" y="780" width="105" height="30" as="geometry" />
        </mxCell>
        <mxCell id="Rct7tU_BRI2sj2KsmHXS-29" value="" style="ellipse;whiteSpace=wrap;html=1;" vertex="1" parent="Rct7tU_BRI2sj2KsmHXS-28">
          <mxGeometry y="5" width="30" height="20" as="geometry" />
        </mxCell>
        <mxCell id="Rct7tU_BRI2sj2KsmHXS-30" value="CUSTO" style="text;html=1;align=left;verticalAlign=middle;resizable=0;points=[];autosize=1;strokeColor=none;fillColor=none;" vertex="1" parent="Rct7tU_BRI2sj2KsmHXS-28">
          <mxGeometry x="35" width="70" height="30" as="geometry" />
        </mxCell>
        <mxCell id="Rct7tU_BRI2sj2KsmHXS-31" value="" style="group" vertex="1" connectable="0" parent="1">
          <mxGeometry x="150" y="750" width="135" height="30" as="geometry" />
        </mxCell>
        <mxCell id="Rct7tU_BRI2sj2KsmHXS-32" value="" style="ellipse;whiteSpace=wrap;html=1;" vertex="1" parent="Rct7tU_BRI2sj2KsmHXS-31">
          <mxGeometry y="5" width="30" height="20" as="geometry" />
        </mxCell>
        <mxCell id="Rct7tU_BRI2sj2KsmHXS-33" value="QUANTIDADE" style="text;html=1;align=left;verticalAlign=middle;resizable=0;points=[];autosize=1;strokeColor=none;fillColor=none;" vertex="1" parent="Rct7tU_BRI2sj2KsmHXS-31">
          <mxGeometry x="35" width="100" height="30" as="geometry" />
        </mxCell>
        <mxCell id="Rct7tU_BRI2sj2KsmHXS-34" value="" style="group" vertex="1" connectable="0" parent="1">
          <mxGeometry x="90" y="720" width="205" height="30" as="geometry" />
        </mxCell>
        <mxCell id="Rct7tU_BRI2sj2KsmHXS-35" value="" style="ellipse;whiteSpace=wrap;html=1;" vertex="1" parent="Rct7tU_BRI2sj2KsmHXS-34">
          <mxGeometry y="5" width="30" height="20" as="geometry" />
        </mxCell>
        <mxCell id="Rct7tU_BRI2sj2KsmHXS-36" value="PREÇO DE VENDA UNID." style="text;html=1;align=left;verticalAlign=middle;resizable=0;points=[];autosize=1;strokeColor=none;fillColor=none;" vertex="1" parent="Rct7tU_BRI2sj2KsmHXS-34">
          <mxGeometry x="35" width="170" height="30" as="geometry" />
        </mxCell>
        <mxCell id="Rct7tU_BRI2sj2KsmHXS-37" value="" style="endArrow=none;html=1;rounded=0;" edge="1" parent="1" source="O327ivwKYVcOwmpXmDWC-36" target="Rct7tU_BRI2sj2KsmHXS-35">
          <mxGeometry width="50" height="50" relative="1" as="geometry">
            <mxPoint x="190.21159342523356" y="950" as="sourcePoint" />
            <mxPoint x="211.97119648784405" y="1055.0918898243538" as="targetPoint" />
          </mxGeometry>
        </mxCell>
      </root>
    </mxGraphModel>
  </diagram>
</mxfile>
